<svg xmlns="http://www.w3.org/2000/svg" xmlns:xlink="http://www.w3.org/1999/xlink" aria-hidden="true" role="img" class="iconify iconify--radix-icons" width="1em" height="1em" preserveAspectRatio="xMidYMid meet" viewBox="0 0 15 15"><path fill="currentColor" fill-rule="evenodd" d="M2 3.5a.5.5 0 0 1 .5-.5h10a.5.5 0 0 1 .5.5v6a.5.5 0 0 1-.5.5h-10a.5.5 0 0 1-.5-.5v-6Zm0 7.415A1.5 1.5 0 0 1 1 9.5v-6A1.5 1.5 0 0 1 2.5 2h10A1.5 1.5 0 0 1 14 3.5v6a1.5 1.5 0 0 1-1 1.415v.585a1.5 1.5 0 0 1-1.5 1.5h-8A1.5 1.5 0 0 1 2 11.5v-.585ZM12 11v.5a.5.5 0 0 1-.5.5h-8a.5.5 0 0 1-.5-.5V11h9ZM5 6.5a.5.5 0 0 1 .5-.5H7V4.5a.5.5 0 0 1 1 0V6h1.5a.5.5 0 0 1 0 1H8v1.5a.5.5 0 0 1-1 0V7H5.5a.5.5 0 0 1-.5-.5Z" clip-rule="evenodd"></path></svg>