<svg xmlns="http://www.w3.org/2000/svg" xmlns:xlink="http://www.w3.org/1999/xlink" aria-hidden="true" role="img" class="iconify iconify--radix-icons" width="1em" height="1em" preserveAspectRatio="xMidYMid meet" viewBox="0 0 15 15"><g fill="none"><path fill-rule="evenodd" clip-rule="evenodd" d="M6 11V4h3v7H6zM5 3.75A.75.75 0 0 1 5.75 3h3.5a.75.75 0 0 1 .75.75v7.5a.75.75 0 0 1-.75.75h-3.5a.75.75 0 0 1-.75-.75v-7.5zm-3.5 9.3a.45.45 0 0 0 0 .9h12a.45.45 0 1 0 0-.9h-12z" fill="currentColor"></path></g></svg>