<svg xmlns="http://www.w3.org/2000/svg" xmlns:xlink="http://www.w3.org/1999/xlink" aria-hidden="true" role="img" class="iconify iconify--radix-icons" width="1em" height="1em" preserveAspectRatio="xMidYMid meet" viewBox="0 0 15 15"><path fill="currentColor" fill-rule="evenodd" d="M7.5 3.1a.4.4 0 1 0 0 .8h7a.4.4 0 0 0 0-.8h-7Zm0 2a.4.4 0 1 0 0 .8h7a.4.4 0 0 0 0-.8h-7Zm-.4 2.4c0-.22.18-.4.4-.4h7a.4.4 0 0 1 0 .8h-7a.4.4 0 0 1-.4-.4Zm.4 1.6a.4.4 0 1 0 0 .8h7a.4.4 0 0 0 0-.8h-7Zm-.4 2.4c0-.22.18-.4.4-.4h7a.4.4 0 0 1 0 .8h-7a.4.4 0 0 1-.4-.4ZM2.5 9.25L5 6H0l2.5 3.25Z" clip-rule="evenodd"></path></svg>