<svg xmlns="http://www.w3.org/2000/svg" xmlns:xlink="http://www.w3.org/1999/xlink" aria-hidden="true" role="img" class="iconify iconify--radix-icons" width="1em" height="1em" preserveAspectRatio="xMidYMid meet" viewBox="0 0 15 15"><path fill="currentColor" fill-rule="evenodd" d="M14.5 1a.5.5 0 0 0-.5.5v12a.5.5 0 1 0 1 0v-12a.5.5 0 0 0-.5-.5ZM.5 1a.5.5 0 0 0-.5.5v12a.5.5 0 0 0 1 0v-12A.5.5 0 0 0 .5 1ZM2 7a1 1 0 0 1 1-1h3a1 1 0 0 1 1 1v1a1 1 0 0 1-1 1H3a1 1 0 0 1-1-1V7Zm7-1a1 1 0 0 0-1 1v1a1 1 0 0 0 1 1h3a1 1 0 0 0 1-1V7a1 1 0 0 0-1-1H9Z" clip-rule="evenodd"></path></svg>