<svg xmlns="http://www.w3.org/2000/svg" xmlns:xlink="http://www.w3.org/1999/xlink" aria-hidden="true" role="img" class="iconify iconify--radix-icons" width="1em" height="1em" preserveAspectRatio="xMidYMid meet" viewBox="0 0 15 15"><g fill="none"><path fill-rule="evenodd" clip-rule="evenodd" d="M1.05 13.5a.45.45 0 0 0 .9 0v-12a.45.45 0 1 0-.9 0v12zM11 9H4V6h7v3zm-7.25 1A.75.75 0 0 1 3 9.25v-3.5A.75.75 0 0 1 3.75 5h7.5a.75.75 0 0 1 .75.75v3.5a.75.75 0 0 1-.75.75h-7.5z" fill="currentColor"></path></g></svg>