<svg xmlns="http://www.w3.org/2000/svg" xmlns:xlink="http://www.w3.org/1999/xlink" aria-hidden="true" role="img" class="iconify iconify--radix-icons" width="1em" height="1em" preserveAspectRatio="xMidYMid meet" viewBox="0 0 15 15"><path fill="currentColor" fill-rule="evenodd" d="M3 2a1 1 0 0 0-1 1v9a1 1 0 0 0 1 1h9a1 1 0 0 0 1-1V8.5a.5.5 0 0 0-1 0V12H3V3h3.5a.5.5 0 0 0 0-1H3Zm9.854.146a.5.5 0 0 1 .146.351V5.5a.5.5 0 0 1-1 0V3.707L6.854 8.854a.5.5 0 1 1-.708-.708L11.293 3H9.5a.5.5 0 0 1 0-1h3a.499.499 0 0 1 .354.146Z" clip-rule="evenodd"></path></svg>