<svg xmlns="http://www.w3.org/2000/svg" xmlns:xlink="http://www.w3.org/1999/xlink" aria-hidden="true" role="img" class="iconify iconify--radix-icons" width="1em" height="1em" preserveAspectRatio="xMidYMid meet" viewBox="0 0 15 15"><path fill="currentColor" fill-rule="evenodd" d="M3 2.5a.5.5 0 0 1 .5-.5h5.586a.5.5 0 0 1 .353.146l2.415 2.415a.5.5 0 0 1 .146.353V12.5a.5.5 0 0 1-.5.5h-8a.5.5 0 0 1-.5-.5v-10ZM3.5 1A1.5 1.5 0 0 0 2 2.5v10A1.5 1.5 0 0 0 3.5 14h8a1.5 1.5 0 0 0 1.5-1.5V4.914a1.5 1.5 0 0 0-.44-1.06l-2.414-2.415A1.5 1.5 0 0 0 9.086 1H3.5Zm1 3a.5.5 0 0 0 0 1h3a.5.5 0 0 0 0-1h-3Zm0 3a.5.5 0 0 0 0 1h6a.5.5 0 0 0 0-1h-6Zm0 3a.5.5 0 0 0 0 1h6a.5.5 0 0 0 0-1h-6Z" clip-rule="evenodd"></path></svg>