<svg xmlns="http://www.w3.org/2000/svg" xmlns:xlink="http://www.w3.org/1999/xlink" aria-hidden="true" role="img" class="iconify iconify--radix-icons" width="1em" height="1em" preserveAspectRatio="xMidYMid meet" viewBox="0 0 15 15"><path fill="currentColor" fill-rule="evenodd" d="M3.5 2a.5.5 0 0 0-.5.5v10a.5.5 0 0 0 .5.5h8a.5.5 0 0 0 .5-.5V6H8.5a.5.5 0 0 1-.5-.5V2H3.5Zm5.5.707L11.293 5H9V2.707ZM2 2.5A1.5 1.5 0 0 1 3.5 1h5a.5.5 0 0 1 .354.146l4 4A.5.5 0 0 1 13 5.5v7a1.5 1.5 0 0 1-1.5 1.5h-8A1.5 1.5 0 0 1 2 12.5v-10Z" clip-rule="evenodd"></path></svg>