<svg xmlns="http://www.w3.org/2000/svg" xmlns:xlink="http://www.w3.org/1999/xlink" aria-hidden="true" role="img" class="iconify iconify--radix-icons" width="1em" height="1em" preserveAspectRatio="xMidYMid meet" viewBox="0 0 15 15"><path fill="currentColor" fill-rule="evenodd" d="M1 2a1 1 0 0 0-1 1v9a1 1 0 0 0 1 1h13a1 1 0 0 0 1-1V3a1 1 0 0 0-1-1H1Zm0 1h13v.925a.448.448 0 0 0-.241.07L7.5 7.967L1.241 3.995A.448.448 0 0 0 1 3.925V3Zm0 1.908V12h13V4.908L7.741 8.88a.45.45 0 0 1-.482 0L1 4.908Z" clip-rule="evenodd"></path></svg>