<svg xmlns="http://www.w3.org/2000/svg" xmlns:xlink="http://www.w3.org/1999/xlink" aria-hidden="true" role="img" class="iconify iconify--radix-icons" width="1em" height="1em" preserveAspectRatio="xMidYMid meet" viewBox="0 0 15 15"><path fill="currentColor" fill-rule="evenodd" d="M1 7.5a.5.5 0 0 0 .21.407l7 5A.5.5 0 0 0 9 12.5V10h2.5a.5.5 0 0 0 .5-.5v-4a.5.5 0 0 0-.5-.5H9V2.5a.5.5 0 0 0-.79-.407l-7 5A.5.5 0 0 0 1 7.5Zm7-4.028V5.5a.5.5 0 0 0 .5.5H11v3H8.5a.5.5 0 0 0-.5.5v2.028L2.36 7.5L8 3.472Z" clip-rule="evenodd"></path></svg>