<svg xmlns="http://www.w3.org/2000/svg" xmlns:xlink="http://www.w3.org/1999/xlink" aria-hidden="true" role="img" class="iconify iconify--radix-icons" width="1em" height="1em" preserveAspectRatio="xMidYMid meet" viewBox="0 0 15 15"><g fill="none"><path fill-rule="evenodd" clip-rule="evenodd" d="M7.95 6H11v3H7.95V6zm0-1V1.5a.45.45 0 0 0-.9 0V5h-3.3a.75.75 0 0 0-.75.75v3.5c0 .414.336.75.75.75h3.3v3.5a.45.45 0 1 0 .9 0V10h3.3a.75.75 0 0 0 .75-.75v-3.5a.75.75 0 0 0-.75-.75h-3.3zm-.9 4H4V6h3.05v3z" fill="currentColor"></path></g></svg>