<svg xmlns="http://www.w3.org/2000/svg" xmlns:xlink="http://www.w3.org/1999/xlink" aria-hidden="true" role="img" class="iconify iconify--radix-icons" width="1em" height="1em" preserveAspectRatio="xMidYMid meet" viewBox="0 0 15 15"><path fill="currentColor" fill-rule="evenodd" d="M5 3.5a.5.5 0 0 1 .5-.5h4a.5.5 0 0 1 .5.5V6h2.5a.5.5 0 0 1 .407.79l-5 7a.5.5 0 0 1-.814 0l-5-7A.5.5 0 0 1 2.5 6H5V3.5ZM6 4v2.5a.5.5 0 0 1-.5.5H3.472L7.5 12.64L11.528 7H9.5a.5.5 0 0 1-.5-.5V4H6Z" clip-rule="evenodd"></path></svg>