<svg xmlns="http://www.w3.org/2000/svg" xmlns:xlink="http://www.w3.org/1999/xlink" aria-hidden="true" role="img" class="iconify iconify--radix-icons" width="1em" height="1em" preserveAspectRatio="xMidYMid meet" viewBox="0 0 15 15"><path fill="currentColor" fill-rule="evenodd" d="M1 .5a.5.5 0 0 1 .5-.5h12a.5.5 0 0 1 0 1h-12A.5.5 0 0 1 1 .5ZM7 2a1 1 0 0 0-1 1v3a1 1 0 0 0 1 1h1a1 1 0 0 0 1-1V3a1 1 0 0 0-1-1H7Zm0 6a1 1 0 0 0-1 1v3a1 1 0 0 0 1 1h1a1 1 0 0 0 1-1V9a1 1 0 0 0-1-1H7Zm-5.5 6a.5.5 0 0 0 0 1h12a.5.5 0 0 0 0-1h-12Z" clip-rule="evenodd"></path></svg>