<svg xmlns="http://www.w3.org/2000/svg" xmlns:xlink="http://www.w3.org/1999/xlink" aria-hidden="true" role="img" class="iconify iconify--radix-icons" width="1em" height="1em" preserveAspectRatio="xMidYMid meet" viewBox="0 0 15 15"><path fill="currentColor" fill-rule="evenodd" d="M7.08.222a.6.6 0 0 1 .84 0l6.75 6.64a.6.6 0 0 1-.84.856L13 6.902V12.5a.5.5 0 0 1-.5.5h-10a.5.5 0 0 1-.5-.5V6.902l-.83.816a.6.6 0 1 1-.84-.856L7.08.222Zm.42 1.27L12 5.918V12h-2V8.5a.5.5 0 0 0-.5-.5h-3a.5.5 0 0 0-.5.5V12H3V5.918l4.5-4.426ZM7 12h2V9H7v3Z" clip-rule="evenodd"></path></svg>