<svg xmlns="http://www.w3.org/2000/svg" xmlns:xlink="http://www.w3.org/1999/xlink" aria-hidden="true" role="img" class="iconify iconify--radix-icons" width="1em" height="1em" preserveAspectRatio="xMidYMid meet" viewBox="0 0 15 15"><path fill="currentColor" fill-rule="evenodd" d="M1 9.5A1.5 1.5 0 0 0 2.5 11H4v-1H2.5a.5.5 0 0 1-.5-.5v-7a.5.5 0 0 1 .5-.5h7a.5.5 0 0 1 .5.5V4H5.5A1.5 1.5 0 0 0 4 5.5v7A1.5 1.5 0 0 0 5.5 14h7a1.5 1.5 0 0 0 1.5-1.5v-7A1.5 1.5 0 0 0 12.5 4H11V2.5A1.5 1.5 0 0 0 9.5 1h-7A1.5 1.5 0 0 0 1 2.5v7Zm4-4a.5.5 0 0 1 .5-.5h7a.5.5 0 0 1 .5.5v7a.5.5 0 0 1-.5.5h-7a.5.5 0 0 1-.5-.5v-7Z" clip-rule="evenodd"></path></svg>