<svg xmlns="http://www.w3.org/2000/svg" xmlns:xlink="http://www.w3.org/1999/xlink" aria-hidden="true" role="img" class="iconify iconify--radix-icons" width="1em" height="1em" preserveAspectRatio="xMidYMid meet" viewBox="0 0 15 15"><path fill="currentColor" fill-rule="evenodd" d="M7.754.82a.5.5 0 0 0-.508 0l-5.5 3.25a.5.5 0 0 0 0 .86l5.5 3.25a.5.5 0 0 0 .508 0l5.5-3.25a.5.5 0 0 0 0-.86L7.754.82ZM7.5 7.17L2.983 4.5L7.5 1.83l4.517 2.67L7.5 7.17Zm-5.93.326a.5.5 0 0 1 .684-.176l5.246 3.1l5.246-3.1a.5.5 0 1 1 .508.86l-5.5 3.25a.5.5 0 0 1-.508 0l-5.5-3.25a.5.5 0 0 1-.177-.684Zm0 3a.5.5 0 0 1 .684-.177l5.246 3.1l5.246-3.1a.5.5 0 0 1 .508.861l-5.5 3.25a.5.5 0 0 1-.508 0l-5.5-3.25a.5.5 0 0 1-.177-.684Z" clip-rule="evenodd"></path></svg>