<svg xmlns="http://www.w3.org/2000/svg" xmlns:xlink="http://www.w3.org/1999/xlink" aria-hidden="true" role="img" class="iconify iconify--radix-icons" width="1em" height="1em" preserveAspectRatio="xMidYMid meet" viewBox="0 0 15 15"><path fill="currentColor" fill-rule="evenodd" d="M8.891 2.194a.5.5 0 0 1 .115.697L2.474 12H13.5a.5.5 0 0 1 0 1h-12a.5.5 0 0 1-.406-.791l7.1-9.9a.5.5 0 0 1 .697-.115ZM11.1 6.5a.5.5 0 1 1 1 0a.5.5 0 0 1-1 0ZM10.4 4a.5.5 0 1 0 0 1a.5.5 0 0 0 0-1Zm1.7 4.5a.5.5 0 1 1 1 0a.5.5 0 0 1-1 0Zm1.3 1.5a.5.5 0 1 0 0 1a.5.5 0 0 0 0-1Z" clip-rule="evenodd"></path></svg>