<svg xmlns="http://www.w3.org/2000/svg" xmlns:xlink="http://www.w3.org/1999/xlink" aria-hidden="true" role="img" class="iconify iconify--radix-icons" width="1em" height="1em" preserveAspectRatio="xMidYMid meet" viewBox="0 0 15 15"><path fill="currentColor" fill-rule="evenodd" d="M4.818 4.682a.45.45 0 0 1 0 .636L3.086 7.05h8.828l-1.732-1.732a.45.45 0 0 1 .636-.636l2.5 2.5a.45.45 0 0 1 0 .636l-2.5 2.5a.45.45 0 0 1-.636-.636l1.732-1.732H3.086l1.732 1.732a.45.45 0 1 1-.636.636l-2.5-2.5a.45.45 0 0 1 0-.636l2.5-2.5a.45.45 0 0 1 .636 0Z" clip-rule="evenodd"></path></svg>