<svg xmlns="http://www.w3.org/2000/svg" xmlns:xlink="http://www.w3.org/1999/xlink" aria-hidden="true" role="img" class="iconify iconify--radix-icons" width="1em" height="1em" preserveAspectRatio="xMidYMid meet" viewBox="0 0 15 15"><path fill="currentColor" fill-rule="evenodd" d="M1.5 1.05a.45.45 0 1 0 0 .9h12a.45.45 0 1 0 0-.9h-12Zm2.432 6.382a.45.45 0 1 0 .636.636L7.05 5.586V13.5a.45.45 0 0 0 .9 0V5.586l2.482 2.482a.45.45 0 1 0 .636-.636l-3.25-3.25a.45.45 0 0 0-.636 0l-3.25 3.25Z" clip-rule="evenodd"></path></svg>