<svg xmlns="http://www.w3.org/2000/svg" xmlns:xlink="http://www.w3.org/1999/xlink" aria-hidden="true" role="img" class="iconify iconify--radix-icons" width="1em" height="1em" preserveAspectRatio="xMidYMid meet" viewBox="0 0 15 15"><path fill="currentColor" fill-rule="evenodd" d="M11.5 1a.5.5 0 0 1 .5.5v12a.5.5 0 0 1-1 0v-12a.5.5 0 0 1 .5-.5Zm-2 2a.5.5 0 0 1 .5.5v10a.5.5 0 0 1-1 0v-10a.5.5 0 0 1 .5-.5Zm4 0a.5.5 0 0 1 .5.5v10a.5.5 0 0 1-1 0v-10a.5.5 0 0 1 .5-.5Zm-8 1a.5.5 0 0 1 .5.5v9a.5.5 0 0 1-1 0v-9a.5.5 0 0 1 .5-.5Zm-4 1a.5.5 0 0 1 .5.5v8a.5.5 0 0 1-1 0v-8a.5.5 0 0 1 .5-.5Zm6 0a.5.5 0 0 1 .5.5v8a.5.5 0 0 1-1 0v-8a.5.5 0 0 1 .5-.5Zm-4 2a.5.5 0 0 1 .5.5v6a.5.5 0 0 1-1 0v-6a.5.5 0 0 1 .5-.5Z" clip-rule="evenodd"></path></svg>