<svg xmlns="http://www.w3.org/2000/svg" xmlns:xlink="http://www.w3.org/1999/xlink" aria-hidden="true" role="img" class="iconify iconify--radix-icons" width="1em" height="1em" preserveAspectRatio="xMidYMid meet" viewBox="0 0 15 15"><defs><path id="IconifyId18164f0550cd4901176" d="M9.621 1.136a.5.5 0 0 1 .707 0l1.061 1.06l1.414 1.415l1.06 1.06a.5.5 0 1 1-.706.708l-.653-.653l-3.637 4.848l1.108 1.108a.5.5 0 0 1-.707.707L7.854 9.975l-1.061-1.06l-3.27 3.27a.5.5 0 1 1-.708-.708l3.27-3.27l-1.06-1.06l-1.414-1.415a.5.5 0 1 1 .707-.707l1.108 1.108l4.848-3.637l-.653-.653a.5.5 0 0 1 0-.707Z"></path></defs><g fill="currentColor" fill-rule="evenodd" clip-rule="evenodd"><use xlink:href="#IconifyId18164f0550cd4901176"></use><use xlink:href="#IconifyId18164f0550cd4901176"></use></g></svg>