<svg xmlns="http://www.w3.org/2000/svg" xmlns:xlink="http://www.w3.org/1999/xlink" aria-hidden="true" role="img" class="iconify iconify--radix-icons" width="1em" height="1em" preserveAspectRatio="xMidYMid meet" viewBox="0 0 15 15"><path fill="currentColor" fill-rule="evenodd" d="M11.854 1.146a.5.5 0 0 0-.707 0L3.714 8.578a1 1 0 0 0-.212.314L2.04 12.303a.5.5 0 0 0 .657.657l3.411-1.463a1 1 0 0 0 .314-.211l7.432-7.432a.5.5 0 0 0 0-.708l-2-2Zm-7.432 8.14l7.078-7.08L12.793 3.5l-7.078 7.078l-1.496.641l-.438-.438l.64-1.496Z" clip-rule="evenodd"></path></svg>