<svg xmlns="http://www.w3.org/2000/svg" xmlns:xlink="http://www.w3.org/1999/xlink" aria-hidden="true" role="img" class="iconify iconify--radix-icons" width="1em" height="1em" preserveAspectRatio="xMidYMid meet" viewBox="0 0 15 15"><path fill="currentColor" fill-rule="evenodd" d="M8.697.04a.5.5 0 0 1 .296.542L8.09 6h4.41a.5.5 0 0 1 .4.8l-6 8a.5.5 0 0 1-.893-.382L6.91 9H2.5a.5.5 0 0 1-.4-.8l6-8a.5.5 0 0 1 .597-.16ZM3.5 8h4a.5.5 0 0 1 .493.582L7.33 12.56L11.5 7h-4a.5.5 0 0 1-.493-.582L7.67 2.44L3.5 8Z" clip-rule="evenodd"></path></svg>