<svg xmlns="http://www.w3.org/2000/svg" xmlns:xlink="http://www.w3.org/1999/xlink" aria-hidden="true" role="img" class="iconify iconify--radix-icons" width="1em" height="1em" preserveAspectRatio="xMidYMid meet" viewBox="0 0 15 15"><path fill="currentColor" fill-rule="evenodd" d="M3 1a1 1 0 0 0-1 1v11a1 1 0 0 0 1 1h7.5a.5.5 0 0 0 0-1H3V2h7.5a.5.5 0 0 0 0-1H3Zm9.604 3.896a.5.5 0 0 0-.708.708L13.293 7H6.5a.5.5 0 0 0 0 1h6.793l-1.397 1.396a.5.5 0 0 0 .708.708l2.25-2.25a.5.5 0 0 0 0-.708l-2.25-2.25Z" clip-rule="evenodd"></path></svg>