<svg xmlns="http://www.w3.org/2000/svg" xmlns:xlink="http://www.w3.org/1999/xlink" aria-hidden="true" role="img" class="iconify iconify--radix-icons" width="1em" height="1em" preserveAspectRatio="xMidYMid meet" viewBox="0 0 15 15"><path fill="currentColor" fill-rule="evenodd" d="M7.5 1a.5.5 0 0 1 .407.21l5 7A.5.5 0 0 1 12.5 9H10v2.5a.5.5 0 0 1-.5.5h-4a.5.5 0 0 1-.5-.5V9H2.5a.5.5 0 0 1-.407-.79l5-7A.5.5 0 0 1 7.5 1ZM3.472 8H5.5a.5.5 0 0 1 .5.5V11h3V8.5a.5.5 0 0 1 .5-.5h2.028L7.5 2.36L3.472 8Z" clip-rule="evenodd"></path></svg>