<svg xmlns="http://www.w3.org/2000/svg" xmlns:xlink="http://www.w3.org/1999/xlink" aria-hidden="true" role="img" class="iconify iconify--radix-icons" width="1em" height="1em" preserveAspectRatio="xMidYMid meet" viewBox="0 0 15 15"><g fill="none"><path fill-rule="evenodd" clip-rule="evenodd" d="M13.95 1.5a.45.45 0 0 0-.9 0v12a.45.45 0 1 0 .9 0v-12zM4 6h7v3H4V6zm7.25-1a.75.75 0 0 1 .75.75v3.5a.75.75 0 0 1-.75.75h-7.5A.75.75 0 0 1 3 9.25v-3.5A.75.75 0 0 1 3.75 5h7.5z" fill="currentColor"></path></g></svg>